# xmcd
#
# Track frame offsets: 
#        150
#        8355
#        51880
#        95665
#        129680
#        165370
#
# Disc length: 2792 seconds
#
# Revision: 0
# Processed by: cddbd v1.5.2PL0 Copyright (c) Steve Scherf et al.
# Submitted via: ExactAudioCopy v0.99pb4
#
DISCID=3f0ae606
DTITLE=Gov't Mule - Pierre's, Fort Wayne (2)
DYEAR=1995
DGENRE=Southern Rock
TTITLE0=Grinnin' In Your Face
TTITLE1=Pygmy Twylyte/Blind Man In The Dark
TTITLE2=Mother Earth
TTITLE3=Just Got Paid/Who Do You Love?
TTITLE4=Kind Of Bird
TTITLE5=Young Man Blues/Good Morning Little School Girl
EXTD=
EXTT0=
EXTT1=
EXTT2=
EXTT3=
EXTT4=
EXTT5=
PLAYORDER=
